<?xml version="1.0" standalone="no"?>
<!DOCTYPE svg PUBLIC "-//W3C//DTD SVG 20010904//EN"
 "http://www.w3.org/TR/2001/REC-SVG-20010904/DTD/svg10.dtd">
<svg version="1.0" xmlns="http://www.w3.org/2000/svg"
 viewBox="0 0 800.000000 600.000000"
 preserveAspectRatio="xMidYMid meet">

<g transform="translate(0.000000,600.000000) scale(0.100000,-0.100000)"
fill="#ffffff" stroke="none">
<path  stroke="#ffffff" stroke-width="100" d="M3960 4575 c-384 -53 -710 -210 -984 -474 -284 -275 -446 -585 -517
-991 -18 -99 -18 -421 0 -520 66 -380 213 -676 464 -936 274 -286 597 -456
997 -526 99 -17 431 -17 530 0 400 70 723 240 998 526 640 667 643 1721 5
2386 -248 259 -529 422 -861 501 -200 48 -439 60 -632 34z m441 -20 c379 -50
725 -217 994 -480 l78 -76 -6 -90 c-15 -210 -67 -351 -166 -449 -139 -138
-307 -208 -590 -249 -195 -28 -231 -32 -231 -22 0 4 17 20 38 34 70 51 165
152 188 202 21 45 54 197 54 246 0 33 -15 21 -80 -62 -115 -146 -237 -238
-370 -280 -51 -16 -91 -20 -185 -20 -66 1 -129 3 -140 5 -11 3 -22 5 -25 5 -3
1 22 16 55 34 174 94 305 210 352 314 22 48 27 76 31 164 7 171 -40 339 -134
480 -56 84 -120 139 -230 195 -47 24 -79 46 -72 49 49 17 312 17 439 0z m-377
-66 c135 -67 205 -138 272 -274 61 -127 87 -241 82 -374 -3 -95 -6 -113 -35
-171 -54 -111 -140 -188 -323 -291 -60 -34 -110 -65 -110 -69 0 -12 138 -24
247 -22 111 1 226 36 318 98 67 43 187 159 225 216 28 43 43 49 36 16 -3 -13
-10 -50 -17 -83 -21 -111 -60 -170 -179 -268 -47 -38 -88 -79 -93 -90 -7 -19
-4 -19 65 -13 411 39 651 124 808 285 95 98 138 208 163 416 l12 109 63 -83
c165 -220 277 -475 329 -754 21 -116 24 -436 5 -547 -66 -376 -227 -693 -484
-951 -229 -230 -541 -402 -856 -469 l-100 -21 -80 40 c-153 77 -251 195 -312
378 -81 245 -57 422 78 558 58 58 170 137 279 196 35 19 63 39 63 46 0 14
-188 28 -284 20 -171 -15 -328 -108 -466 -276 -36 -44 -66 -78 -68 -76 -5 5
18 127 34 175 19 59 72 125 164 201 132 109 129 111 -92 83 -344 -43 -560
-130 -698 -281 -92 -101 -142 -237 -156 -427 l-7 -90 -44 49 c-66 74 -168 230
-224 343 -55 112 -120 299 -143 412 -93 457 0 924 259 1310 241 357 622 620
1040 714 111 26 104 27 229 -35z m-134 -2026 c-74 -57 -168 -155 -193 -201
-37 -69 -75 -272 -52 -278 6 -2 42 38 80 88 114 149 255 249 396 283 67 15
193 20 273 9 l47 -7 -62 -34 c-164 -91 -292 -202 -339 -292 -75 -148 -58 -365
47 -581 56 -116 141 -206 251 -267 l73 -40 -68 -6 c-481 -46 -959 118 -1338
458 l-78 70 6 95 c13 225 59 344 177 462 65 64 96 85 182 127 56 27 137 59
178 70 95 26 334 65 425 69 l30 2 -35 -27z"/>
</g>
</svg>
