<?xml version="1.0" standalone="no"?>
<!DOCTYPE svg PUBLIC "-//W3C//DTD SVG 20010904//EN"
 "http://www.w3.org/TR/2001/REC-SVG-20010904/DTD/svg10.dtd">
<svg version="1.0" xmlns="http://www.w3.org/2000/svg"
 viewBox="0 0 1493.000000 430.000000"
 preserveAspectRatio="xMidYMid meet">
<defs>
    <linearGradient id="Gradient1">
        <stop id="stop1" offset="0%" stop-color="#0e7490" />

        <stop id="stop3" offset="100%" stop-color="#ec4899" />
    </linearGradient>
</defs>
<g transform="translate(0.000000,430.000000) scale(0.100000,-0.100000)"
fill="url(#Gradient1)" stroke="">
<path d="M2 3383 l3 -918 70 -41 c39 -22 104 -60 146 -83 200 -112 340 -294
401 -521 21 -77 23 -106 22 -310 0 -246 -6 -294 -96 -780 -79 -425 -51 -610
104 -695 48 -27 62 -30 143 -30 82 0 97 3 157 33 77 38 118 82 151 162 19 49
22 72 21 205 -1 131 -9 195 -58 505 -33 201 -60 405 -63 470 -15 311 80 703
258 1064 117 238 293 394 509 452 93 25 272 25 370 0 157 -40 260 -89 530
-254 85 -52 207 -122 270 -155 157 -83 197 -111 221 -159 35 -68 35 -128 1
-263 -105 -414 -100 -549 27 -676 150 -149 366 -108 463 88 28 57 33 79 36
157 3 97 6 87 -79 351 -85 268 -5 477 283 736 167 149 313 232 467 265 168 35
258 1 455 -173 185 -164 257 -203 376 -203 110 0 189 34 402 172 197 127 274
158 398 158 131 0 228 -41 469 -199 296 -194 384 -226 606 -225 157 0 221 13
342 69 91 42 131 70 291 202 208 172 288 212 424 213 136 0 216 -42 413 -220
212 -191 308 -240 474 -240 158 0 297 54 601 235 220 130 328 186 436 221 77
25 104 29 199 29 88 0 122 -5 169 -22 127 -48 220 -150 267 -295 22 -66 24
-90 24 -243 0 -210 -9 -253 -120 -596 -146 -448 -160 -614 -68 -807 41 -88
134 -187 208 -222 70 -34 188 -35 263 -1 109 49 205 194 238 361 30 151 6 383
-77 732 -107 454 -118 547 -78 652 47 127 213 198 310 133 56 -36 83 -106 83
-207 0 -86 -6 -113 -63 -295 -18 -55 -39 -142 -48 -193 -35 -208 35 -380 185
-453 36 -18 64 -23 122 -24 65 0 82 4 129 30 95 53 159 150 187 288 20 92 8
181 -47 384 -90 328 -90 430 0 506 82 68 258 40 355 -58 20 -19 53 -72 75
-118 47 -97 111 -164 199 -205 50 -24 69 -27 157 -27 84 0 108 4 146 23 69 34
123 85 212 201 45 58 112 137 149 174 180 179 392 253 565 199 176 -56 282
-196 379 -504 92 -290 132 -368 253 -489 154 -154 315 -181 456 -76 l55 40 0
1194 0 1193 -7465 0 -7465 0 2 -917z"/>
</g>
</svg>
